<svg width="224" height="63" viewBox="0 0 224 63" fill="none" xmlns="http://www.w3.org/2000/svg" class="Navbar__StyledLogo-sc-10f9p4p-1 kBGMfT"><path d="M50.7 20.7C53.4 21.8 55.2 23.4 56.1 25.7C57.1 28.4 56.2 31.3 53.8 33.4C52.5 34.5 50.7 35.3 48.6 35.8C48.4 35.8 48.2 35.9 48 35.9C48.8 36.9 49.5 37.9 49.8 38.6C51 41.3 51.1 43.7 50.1 46C49 48.4 46.6 49.8 43.7 49.8C43.4 49.8 43.2 49.8 42.9 49.8C41.1 49.6 39.3 49 37.6 47.8C37.2 47.5 36.7 47.1 36.1 46.6C36.1 47.4 36 48.1 35.9 48.7C35.5 50.8 34.7 52.5 33.5 53.9C32 55.6 30.1 56.6 28.1 56.6C27.3 56.6 26.6 56.5 25.9 56.2C23.6 55.3 22 53.6 20.9 50.8C20.6 50 20.3 48.6 20.2 47.2C19.9 47.5 19.6 47.7 19.3 47.9C17.5 49.1 15.7 49.7 14 49.9C13.7 49.9 13.5 49.9 13.2 49.9C10.4 49.9 8 48.5 6.9 46.1C5.9 43.9 6 41.5 7.2 38.8C7.5 38 8.3 37 9.1 36C8.6 36 8.2 35.9 7.8 35.8C5.7 35.4 4 34.6 2.6 33.4C0.199999 31.4 -0.700001 28.5 0.299999 25.8C1.1 23.5 2.9 21.9 5.7 20.8C6.6 20.5 8 20.2 9.6 20.1C9.2 19.7 9 19.3 8.7 19C7.5 17.2 6.9 15.4 6.7 13.7C6.4 10.6 7.8 7.8 10.5 6.6C12.8 5.5 15.1 5.7 17.9 6.9C18.6 7.2 19.4 7.7 20.3 8.4C20.4 7.4 20.6 6.5 20.9 5.9C22 3.2 23.6 1.4 25.9 0.5C26.6 0.1 27.4 0 28.1 0C30.1 0 32.1 1 33.5 2.7C34.6 4 35.4 5.8 35.9 7.9C36 8.2 36 8.5 36.1 8.9C37.2 8 38.2 7.3 39 6.9C41.7 5.7 44.1 5.6 46.3 6.6C48.9 7.8 50.3 10.5 50.1 13.6C50 15.4 49.3 17.1 48.1 18.9C47.9 19.2 47.6 19.5 47.3 19.9C48.7 20.2 49.9 20.4 50.7 20.7ZM49.2 24.6C48.5 24.3 46.8 24.1 45.1 24.1C44.5 24.1 44 24.1 43.5 24.2C43.1 24.3 42.6 24.3 42.2 24.4L33.7 26.1L40.5 20.7C42.2 19.3 44.1 17.5 44.6 16.7C45.4 15.5 45.8 14.3 45.9 13.3C46 11.9 45.5 10.8 44.5 10.4C43.4 9.9 42.3 10 40.6 10.7C39.6 11.1 37.3 13.1 36.3 14.4C36 14.8 35.8 15.1 35.5 15.6L30.8 22.7L31.7 14.2C31.9 12 32 9.6 31.8 8.7C31.5 7.3 31 6.2 30.3 5.4C29.6 4.6 28.8 4.2 28.1 4.2C27.8 4.2 27.6 4.2 27.3 4.3C26.2 4.7 25.4 5.6 24.8 7.3C24.4 8.3 24.2 11.2 24.4 12.9L25.4 20.8L20.6 14.4C19.5 13 17.2 11 16.2 10.6C14.5 9.8 13.4 9.8 12.3 10.3C11.3 10.8 10.8 11.8 10.9 13.3C11 14.3 11.4 15.5 12.2 16.7C12.8 17.6 14.9 19.6 16.7 21L24.4 26.9L15 24.6C14.2 24.4 13.5 24.3 12.9 24.2C12.5 24.1 12 24.1 11.4 24.1C9.7 24.1 8 24.3 7.3 24.6C5.6 25.3 4.7 26 4.3 27.1C3.9 28.1 4.3 29.2 5.4 30.1C6.2 30.8 7.3 31.3 8.7 31.6C9.1 31.7 9.9 31.7 10.7 31.7C11.9 31.7 13.2 31.6 14.4 31.5L23 30.5L15.8 35.3C15.4 35.6 15 35.8 14.7 36.1C13.4 37.1 11.4 39.4 11 40.4C10.3 42.1 10.2 43.2 10.7 44.3C11.1 45.2 12 45.7 13.2 45.7C13.3 45.7 13.5 45.7 13.6 45.7C14.6 45.6 15.8 45.2 17 44.4C17.8 43.9 19.6 42 21 40.3L26.5 33.4L24.7 42C24.6 42.6 24.5 43.1 24.4 43.6C24.2 45.2 24.4 48.2 24.8 49.2C25.5 50.9 26.2 51.8 27.3 52.2C27.6 52.3 27.8 52.3 28.1 52.3C28.8 52.3 29.6 51.9 30.3 51.1C31 50.3 31.5 49.2 31.8 47.8C32 46.6 31.9 43.3 31.6 41.1L30.2 32.6L35.3 39.5C36.7 41.3 38.9 43.7 39.8 44.3C41 45.1 42.2 45.5 43.2 45.6C43.3 45.6 43.5 45.6 43.6 45.6C44.9 45.6 45.7 45.1 46.2 44.2C46.7 43.1 46.6 41.9 45.9 40.3C45.5 39.3 43.5 37 42.2 36C42 35.8 41.8 35.7 41.5 35.5L35.2 31L42.9 31.6C43.8 31.7 44.8 31.7 45.7 31.7C46.6 31.7 47.3 31.7 47.7 31.6C49.1 31.3 50.3 30.8 51 30.1C52.1 29.2 52.4 28.1 52.1 27.1C51.7 26 50.9 25.3 49.2 24.6ZM37 27.9C37 29.3 36.7 30.5 36.2 31.5C35.7 32.5 35 33.3 34.2 34C33.4 34.6 32.4 35.1 31.3 35.4C30.2 35.7 29.2 35.9 28.1 35.9H22.2V20.1H28C29.1 20.1 30.2 20.2 31.3 20.5C32.4 20.8 33.4 21.2 34.2 21.8C35.1 22.4 35.7 23.2 36.3 24.2C36.9 25.2 37 26.4 37 27.9ZM32.4 27.8C32.4 27 32.3 26.3 32 25.8C31.7 25.3 31.4 24.8 30.9 24.5C30.5 24.2 30 24 29.4 23.8C28.8 23.6 28.3 23.6 27.7 23.6H26V32H27.6C28.2 32 28.8 31.9 29.4 31.8C30 31.7 30.5 31.4 30.9 31.1C31.3 30.8 31.7 30.3 32 29.8C32.3 29.3 32.4 28.6 32.4 27.8Z" fill="#545BC4" id="logoFlower"></path><path d="M95.6 47.9V43.9H95.5C94.5 45.5 93.1 46.7 91.3 47.5C89.5 48.3 87.5 48.8 85.4 48.8C83.1 48.8 81 48.3 79.2 47.4C77.4 46.5 75.8 45.3 74.6 43.8C73.3 42.3 72.4 40.5 71.7 38.6C71 36.6 70.7 34.5 70.7 32.4C70.7 30.3 71 28.2 71.7 26.2C72.4 24.2 73.4 22.5 74.6 21C75.9 19.5 77.4 18.3 79.2 17.5C81 16.6 83 16.2 85.2 16.2C87.5 16.2 89.4 16.6 91 17.5C92.6 18.4 93.8 19.3 94.7 20.4H94.8V1.1H105V48H95.6V47.9ZM95.2 32.4C95.2 31.4 95 30.4 94.7 29.5C94.4 28.6 93.9 27.7 93.2 27C92.5 26.3 91.8 25.7 90.9 25.2C90 24.7 89 24.5 87.8 24.5C86.6 24.5 85.5 24.7 84.6 25.2C83.7 25.7 82.9 26.2 82.3 27C81.7 27.8 81.2 28.6 80.9 29.5C80.6 30.5 80.4 31.4 80.4 32.4C80.4 33.4 80.6 34.4 80.9 35.3C81.2 36.3 81.7 37.1 82.3 37.9C82.9 38.7 83.7 39.2 84.6 39.7C85.5 40.2 86.6 40.4 87.8 40.4C89 40.4 90 40.2 90.9 39.7C91.8 39.2 92.6 38.6 93.2 37.9C93.8 37.2 94.3 36.3 94.7 35.4C95.1 34.5 95.2 33.4 95.2 32.4ZM130.2 34.5H128.9C127.8 34.5 126.7 34.6 125.5 34.7C124.3 34.8 123.4 35 122.5 35.3C121.6 35.6 120.9 36 120.3 36.6C119.7 37.2 119.4 37.9 119.4 38.8C119.4 39.4 119.5 39.9 119.8 40.3C120.1 40.7 120.4 41 120.8 41.3C121.2 41.5 121.7 41.7 122.2 41.8C122.7 41.9 123.3 42 123.8 42C125.9 42 127.4 41.4 128.5 40.3C129.6 39.2 130.1 37.6 130.1 35.7V34.5H130.2ZM111.5 21.3C113.3 19.6 115.4 18.3 117.9 17.4C120.3 16.5 122.8 16.1 125.3 16.1C127.9 16.1 130.1 16.4 131.9 17.1C133.7 17.7 135.2 18.7 136.3 20.1C137.4 21.4 138.2 23.1 138.7 25.2C139.2 27.3 139.5 29.7 139.5 32.5V48.1H130.2V44.8H130C129.2 46.1 128 47.1 126.4 47.8C124.8 48.5 123.1 48.9 121.2 48.9C120 48.9 118.7 48.7 117.4 48.4C116.1 48.1 114.9 47.5 113.8 46.8C112.7 46.1 111.8 45.1 111.1 43.8C110.4 42.6 110 41 110 39.2C110 37 110.6 35.2 111.8 33.8C113 32.4 114.6 31.4 116.5 30.6C118.4 29.9 120.6 29.4 122.9 29.1C125.3 28.9 127.5 28.7 129.8 28.7V28.2C129.8 26.7 129.3 25.5 128.2 24.8C127.1 24.1 125.8 23.7 124.2 23.7C122.8 23.7 121.4 24 120 24.6C118.7 25.2 117.5 26 116.6 26.8L111.5 21.3ZM157.1 7.2C157.1 8 156.9 8.7 156.6 9.4C156.3 10.1 155.9 10.7 155.4 11.2C154.9 11.7 154.3 12.1 153.5 12.4C152.8 12.7 152 12.8 151.2 12.8C149.5 12.8 148.2 12.3 147 11.2C145.9 10.1 145.3 8.8 145.3 7.3C145.3 6.6 145.4 5.8 145.7 5.2C146 4.6 146.4 3.9 146.9 3.4C147.4 2.9 148.1 2.5 148.8 2.2C149.5 1.9 150.3 1.7 151.1 1.7C151.9 1.7 152.6 1.8 153.4 2.1C154.1 2.4 154.7 2.8 155.3 3.3C155.8 3.8 156.2 4.4 156.5 5.1C156.8 5.8 157.1 6.4 157.1 7.2ZM146.2 47.9V17.1H156.4V48H146.2V47.9ZM181.6 26.2C180.8 25.4 179.8 24.8 178.7 24.2C177.6 23.7 176.4 23.4 175.2 23.4C174.2 23.4 173.4 23.6 172.6 24C171.8 24.4 171.4 25 171.4 25.9C171.4 26.8 171.8 27.4 172.7 27.8C173.6 28.2 175 28.6 177 29C178.2 29.2 179.3 29.6 180.5 30.1C181.7 30.6 182.7 31.2 183.7 31.9C184.7 32.6 185.4 33.6 186 34.6C186.6 35.7 186.9 37 186.9 38.4C186.9 40.3 186.5 42 185.7 43.3C184.9 44.6 183.9 45.7 182.6 46.6C181.3 47.4 179.9 48 178.4 48.4C176.9 48.8 175.3 49 173.7 49C171.2 49 168.7 48.6 166.3 47.8C163.9 47 161.9 45.8 160.3 44.2L166 38.2C166.9 39.2 168 40 169.3 40.7C170.6 41.4 172 41.7 173.5 41.7C174.3 41.7 175.1 41.5 175.9 41.1C176.7 40.7 177.1 40 177.1 39C177.1 38 176.6 37.3 175.6 36.9C174.6 36.5 173.1 36 171 35.5C169.9 35.3 168.9 34.9 167.8 34.5C166.7 34.1 165.8 33.5 164.9 32.8C164 32.1 163.4 31.2 162.8 30.2C162.2 29.2 162 27.9 162 26.5C162 24.6 162.4 23.1 163.2 21.8C164 20.5 165 19.4 166.2 18.6C167.4 17.8 168.8 17.2 170.3 16.8C171.8 16.4 173.3 16.2 174.8 16.2C177.1 16.2 179.4 16.6 181.6 17.3C183.8 18 185.7 19.1 187.2 20.6L181.6 26.2ZM210.1 52.6C209.5 54.2 208.8 55.6 208 56.9C207.2 58.2 206.3 59.2 205.3 60.1C204.2 61 203 61.7 201.6 62.1C200.2 62.6 198.5 62.8 196.5 62.8C195.5 62.8 194.6 62.7 193.6 62.6C192.6 62.5 191.7 62.3 191 62.1L192.1 53.5C192.6 53.7 193.1 53.8 193.7 53.9C194.3 54 194.8 54.1 195.3 54.1C196.9 54.1 198 53.7 198.7 53C199.4 52.3 200 51.3 200.5 49.9L201.5 47.4L188.6 17H199.9L206.8 36.8H207L213.1 17H223.9L210.1 52.6Z" fill="#323648" id="logoText"></path></svg>
